<svg width="1121" height="99" viewBox="0 0 1121 99" fill="none" xmlns="http://www.w3.org/2000/svg">
<path d="M48.9644 97.3665C42.5625 97.5309 36.193 96.4055 30.2351 94.0572C24.2772 91.7089 18.8527 88.1858 14.2846 83.6977C9.71651 79.2095 6.0982 73.8481 3.64512 67.9325C1.19204 62.017 -0.045658 55.6684 0.0057143 49.2646C-0.0919851 42.9833 1.064 36.7455 3.40602 30.9163C5.74805 25.0871 9.22909 19.7835 13.6455 15.3159C18.0619 10.8482 23.3249 7.30616 29.1267 4.89698C34.9284 2.48781 41.1524 1.25989 47.4344 1.28506C55.3563 0.81962 63.2623 2.43271 70.3687 5.96442C77.4751 9.49613 83.535 14.8238 87.9477 21.4193L69.0986 34.2098C66.9096 30.5947 63.7744 27.6465 60.0318 25.6835C56.2892 23.7205 52.0813 22.8174 47.8628 23.0717C34.0932 23.0717 25.6478 34.5158 25.6478 49.2646C25.6478 64.0134 34.338 75.5799 48.6584 75.5799C53.223 75.9186 57.7825 74.8584 61.7294 72.5405C65.6763 70.2227 68.8232 66.7572 70.751 62.6058L90.0285 74.8455C86.0669 82.1444 80.0885 88.149 72.807 92.1424C65.5255 96.1359 57.2486 97.9494 48.9644 97.3665Z" fill="#C62828"/>
<path d="M87.5811 49.2625C87.6502 42.7837 89.016 36.3844 91.5979 30.442C94.1797 24.4995 97.9253 19.1342 102.614 14.6624C107.302 10.1907 112.839 6.703 118.897 4.40511C124.955 2.10722 131.411 1.04562 137.886 1.28293C144.361 1.04562 150.818 2.10722 156.875 4.40511C162.933 6.703 168.47 10.1907 173.158 14.6624C177.847 19.1342 181.593 24.4995 184.174 30.442C186.756 36.3844 188.122 42.7837 188.191 49.2625C188.13 55.7491 186.77 62.1577 184.193 68.1105C181.615 74.0634 177.872 79.4399 173.184 83.923C168.495 88.4061 162.956 91.9051 156.894 94.2136C150.832 96.5221 144.369 97.5934 137.886 97.3644C131.416 97.5433 124.974 96.4375 118.934 94.1108C112.894 91.7842 107.375 88.2829 102.697 83.8096C98.0189 79.3363 94.2741 73.9797 91.6795 68.0498C89.0849 62.1198 87.6919 55.7342 87.5811 49.2625ZM162.549 49.2625C162.549 34.5136 153.614 23.0695 138.07 23.0695C122.525 23.0695 113.59 34.5136 113.59 49.2625C113.59 64.0113 122.525 75.5778 138.07 75.5778C153.614 75.5778 162.549 64.0113 162.549 49.2625Z" fill="#C62828"/>
<path d="M217.994 49.3867V96.1422H194.433V1.16236C194.433 0.305581 194.861 -0.367601 196.391 1.16236L255.264 49.6927V2.38633H278.825V97.4886C278.825 98.5902 278.397 99.0185 276.867 97.7946L217.994 49.3867Z" fill="#C62828"/>
<path d="M327.784 97.1208C327.734 97.3017 327.627 97.4614 327.477 97.5752C327.328 97.689 327.146 97.7506 326.958 97.7506C326.77 97.7506 326.588 97.689 326.439 97.5752C326.289 97.4614 326.182 97.3017 326.132 97.1208L282.008 2.38571H308.751L327.907 46.0813L346.266 2.38571H371.786L327.784 97.1208Z" fill="#C62828"/>
<path d="M375.214 2.38571H441.003V23.4991H400.306V38.9211H434.516V58.933H400.306V75.0282H443.145V96.1416H375.214V2.38571Z" fill="#C62828"/>
<path d="M474.661 96.1416H449.508V2.38571H487.451C511.319 2.38571 524.537 16.4613 524.537 35.6164C524.789 41.3595 523.291 47.0437 520.242 51.9173C517.194 56.7909 512.737 60.6244 507.463 62.9109L526.863 96.1416H499.752L483.473 66.7664H474.661V96.1416ZM486.227 47.6113C494.734 47.6113 499.324 43.3274 499.324 35.3716C499.324 27.4158 494.734 23.132 486.227 23.132H474.661V47.6113H486.227Z" fill="#C62828"/>
<path d="M524.291 80.1681L542.65 66.5209C544.849 69.6724 547.779 72.2433 551.19 74.0128C554.601 75.7823 558.391 76.6975 562.234 76.6798C569.7 76.6798 574.106 74.4767 574.106 69.2748C574.106 65.2357 571.046 63.155 564.865 61.2578L553.849 57.5247C540.202 52.996 530.533 44.7343 530.533 29.2511C530.533 10.8916 545.832 1.28344 562.539 1.28344C568.439 0.823082 574.367 1.68271 579.893 3.79988C585.419 5.91704 590.403 9.23856 594.485 13.5231L579.981 28.7003C577.905 26.4819 575.378 24.7335 572.57 23.5724C569.763 22.4113 566.739 21.8644 563.702 21.9685C557.582 21.9685 554.584 24.7224 554.584 28.4555C554.584 32.1886 556.664 33.841 561.254 35.3097L573.494 39.4712C592.282 45.591 598.585 54.6484 598.585 67.8672C598.585 85.1252 587.876 97.4873 563.029 97.4873C555.66 97.8902 548.301 96.529 541.563 93.5168C534.826 90.5046 528.904 85.9284 524.291 80.1681Z" fill="#C62828"/>
<path d="M605.195 2.38571H630.348V96.1416H605.257L605.195 2.38571Z" fill="#C62828"/>
<path d="M637.08 49.2658C637.535 36.2197 643.038 23.8599 652.428 14.7916C661.818 5.72326 674.362 0.654938 687.416 0.654938C700.47 0.654938 713.014 5.72326 722.404 14.7916C731.794 23.8599 737.296 36.2197 737.751 49.2658C737.296 62.3119 731.794 74.6717 722.404 83.74C713.014 92.8083 700.47 97.8767 687.416 97.8767C674.362 97.8767 661.818 92.8083 652.428 83.74C643.038 74.6717 637.535 62.3119 637.08 49.2658ZM712.048 49.2658C712.048 34.517 703.113 23.0729 687.569 23.0729C672.024 23.0729 663.089 34.517 663.089 49.2658C663.089 64.0146 672.024 75.5811 687.569 75.5811C703.113 75.5811 712.048 64.0146 712.048 49.2658Z" fill="#C62828"/>
<path d="M767.494 49.3867V96.1422H743.932V1.16236C743.932 0.305581 744.361 -0.367601 745.89 1.16236L804.763 49.6927V2.38633H828.325V97.4886C828.325 98.5902 827.896 99.0185 826.366 97.7946L767.494 49.3867Z" fill="#C62828"/>
<path d="M839.647 2.38571H864.738V96.1416H839.647V2.38571Z" fill="#C62828"/>
<path d="M868.471 80.1681L886.83 66.5209C889.029 69.6724 891.959 72.2433 895.37 74.0128C898.782 75.7823 902.571 76.6975 906.414 76.6798C913.88 76.6798 918.286 74.4767 918.286 69.2748C918.286 65.2357 915.226 63.155 909.045 61.2578L898.03 57.5247C884.382 52.996 874.713 44.7343 874.713 29.2511C874.713 10.8916 890.013 1.28344 906.72 1.28344C912.619 0.823082 918.547 1.68271 924.073 3.79988C929.599 5.91704 934.584 9.23856 938.665 13.5231L924.1 28.7003C922.024 26.4819 919.497 24.7335 916.689 23.5724C913.881 22.4113 910.858 21.8644 907.821 21.9685C901.701 21.9685 898.703 24.7224 898.703 28.4555C898.703 32.1886 900.783 33.841 905.373 35.3097L917.613 39.4712C936.401 45.591 942.704 54.6484 942.704 67.8672C942.704 85.1252 931.995 97.4873 907.148 97.4873C899.789 97.8803 892.442 96.5143 885.716 93.5025C878.99 90.4906 873.078 85.9197 868.471 80.1681Z" fill="#C62828"/>
<path d="M965.226 23.4991H940.441V2.38571H1015.16V23.4991H990.317V96.1416H965.226V23.4991Z" fill="#C62828"/>
<path d="M1061.49 84.8209H1028.81L1024.16 96.1426H999.679L1045.21 0.73438C1045.64 -0.244793 1046.5 -0.244793 1046.86 0.73438L1092.39 96.1426H1066.45L1061.49 84.8209ZM1036.52 66.4614H1053.53L1044.97 46.5719L1036.52 66.4614Z" fill="#C62828"/>
<path d="M1093.07 84.0243C1093 81.2744 1093.74 78.5651 1095.22 76.2429C1096.69 73.9206 1098.83 72.0909 1101.35 70.9875C1103.87 69.8842 1106.66 69.5574 1109.37 70.0488C1112.07 70.5403 1114.57 71.8277 1116.54 73.7466C1118.51 75.6654 1119.87 78.1285 1120.43 80.821C1121 83.5134 1120.74 86.3129 1119.71 88.8616C1118.67 91.4104 1116.9 93.5925 1114.62 95.1291C1112.34 96.6657 1109.65 97.487 1106.9 97.488C1105.1 97.5286 1103.32 97.2109 1101.64 96.5533C1099.97 95.8956 1098.45 94.9113 1097.16 93.6579C1095.87 92.4044 1094.85 90.9069 1094.14 89.2528C1093.44 87.5988 1093.08 85.8213 1093.07 84.0243ZM1093.93 2.38571H1119.93L1117.18 64.4408H1096.68L1093.93 2.38571Z" fill="#C62828"/>
</svg>
